<svg xmlns="http://www.w3.org/2000/svg" id="search" width="20" height="20">
	<g transform="matrix(0.90909094 0 0 0.90909094 0 0)">
		<path d="M15.4211 17.2633C 13.8158 18.4738 11.8158 19.2106 9.63158 19.2106C 4.31579 19.2106 0 14.9212 0 9.60538C 0 4.28959 4.31579 -0.0261961 9.63158 0.00011971C 14.9211 0.00011971 19.2368 4.31591 19.2368 9.60538C 19.2368 11.7633 18.5263 13.7896 17.2895 15.3949L17.2895 15.3949L22 20.1054L20.1316 21.9738L15.4211 17.2633zM16.6053 9.57907C 16.6053 5.73696 13.4737 2.60538 9.63158 2.60538C 5.76316 2.60538 2.63158 5.73696 2.63158 9.60538C 2.63158 13.4475 5.78947 16.5528 9.63158 16.5528C 13.4737 16.5528 16.6053 13.4212 16.6053 9.57907z" stroke="none" fill="#FFFFFF" fill-rule="nonzero" />
	</g>
</svg>